<?xml version="1.0" encoding="UTF-8" standalone="no"?>
<!-- Created with Inkscape (http://www.inkscape.org/) -->

<svg
   version="1.1"
   id="svg153"
   xml:space="preserve"
   width="682.66669"
   height="682.66669"
   viewBox="0 0 682.66669 682.66669"
   xmlns="http://www.w3.org/2000/svg"
   xmlns:svg="http://www.w3.org/2000/svg"><defs
     id="defs157"><clipPath
       clipPathUnits="userSpaceOnUse"
       id="clipPath167"><path
         d="M 0,512 H 512 V 0 H 0 Z"
         id="path165" /></clipPath></defs><g
     id="g159"
     transform="matrix(1.3333333,0,0,-1.3333333,0,682.66667)"><g
       id="g161"><g
         id="g163"
         clip-path="url(#clipPath167)"><g
           id="g169"
           transform="translate(75,95)"><path
             d="m 0,0 v 402 h -10 c -27.614,0 -50,-22.386 -50,-50 V -40"
             style="fill:none;stroke:#ffffff;stroke-width:30;stroke-linecap:round;stroke-linejoin:round;stroke-miterlimit:10;stroke-dasharray:none;stroke-opacity:1"
             id="path171" /></g><g
           id="g173"
           transform="translate(377,255)"><path
             d="m 0,0 v 120 c 0,16.568 13.432,30 30,30 16.568,0 30,-13.432 30,-30 V 0"
             style="fill:none;stroke:#ffffff;stroke-width:30;stroke-linecap:round;stroke-linejoin:round;stroke-miterlimit:10;stroke-dasharray:none;stroke-opacity:1"
             id="path175" /></g><g
           id="g177"
           transform="translate(257,245)"><path
             d="m 0,0 v 130 c 0,16.568 13.432,30 30,30 16.568,0 30,-13.432 30,-30 V 10"
             style="fill:none;stroke:#ffffff;stroke-width:30;stroke-linecap:round;stroke-linejoin:round;stroke-miterlimit:10;stroke-dasharray:none;stroke-opacity:1"
             id="path179" /></g><g
           id="g181"
           transform="translate(437,255)"><path
             d="m 0,0 v 70 c 0,16.568 13.432,30 30,30 16.568,0 30,-13.432 30,-30 v -80"
             style="fill:none;stroke:#ffffff;stroke-width:30;stroke-linecap:round;stroke-linejoin:round;stroke-miterlimit:10;stroke-dasharray:none;stroke-opacity:1"
             id="path183" /></g><g
           id="g185"
           transform="translate(257,245)"><path
             d="M 0,0 V -80"
             style="fill:none;stroke:#ffffff;stroke-width:30;stroke-linecap:round;stroke-linejoin:round;stroke-miterlimit:10;stroke-dasharray:none;stroke-opacity:1"
             id="path187" /></g><g
           id="g189"
           transform="translate(377,395)"><path
             d="m 0,0 v 102 h -302 v -402 h 135.25"
             style="fill:none;stroke:#ffffff;stroke-width:30;stroke-linecap:round;stroke-linejoin:round;stroke-miterlimit:10;stroke-dasharray:none;stroke-opacity:1"
             id="path191" /></g><g
           id="g193"
           transform="translate(195,395)"><path
             d="M 0,0 -30,30 -60,0 V 102 H 0 Z"
             style="fill:none;stroke:#ffffff;stroke-width:30;stroke-linecap:round;stroke-linejoin:round;stroke-miterlimit:10;stroke-dasharray:none;stroke-opacity:1"
             id="path195" /></g><g
           id="g197"
           transform="translate(317,255)"><path
             d="m 0,0 v 140 c 0,16.568 13.432,30 30,30 16.568,0 30,-13.432 30,-30 V 0"
             style="fill:none;stroke:#ffffff;stroke-width:30;stroke-linecap:round;stroke-linejoin:round;stroke-miterlimit:10;stroke-dasharray:none;stroke-opacity:1"
             id="path199" /></g><g
           id="g201"
           transform="translate(210.2495,95)"><path
             d="m 0,0 h -155.25 c -22.09,0 -40,-17.908 -40,-40 0,-22.092 17.91,-40 40,-40 h 192"
             style="fill:none;stroke:#ffffff;stroke-width:30;stroke-linecap:round;stroke-linejoin:round;stroke-miterlimit:10;stroke-dasharray:none;stroke-opacity:1"
             id="path203" /></g><g
           id="g205"
           transform="translate(257,165)"><path
             d="m 0,0 v 70 c 0,16.568 -13.432,30 -30,30 -16.568,0 -30,-13.432 -30,-30 v -96.148 c 0,-32.525 19.802,-61.773 50,-73.852 v -50 h 210 v 50 c 24.515,12.257 40,37.313 40,64.721 V 80"
             style="fill:none;stroke:#ffffff;stroke-width:30;stroke-linecap:round;stroke-linejoin:round;stroke-miterlimit:10;stroke-dasharray:none;stroke-opacity:1"
             id="path207" /></g></g></g></g></svg>
