<svg width="3571" height="4776" viewBox="0 0 3571 4776" fill="none" xmlns="http://www.w3.org/2000/svg">
<g filter="url(#filter0_d_1_4)">
<path d="M676.5 2455.1C676.5 2471.77 672.333 2488.17 664.379 2502.82L92.3415 3556.22C86.4969 3566.98 82.6791 3578.73 81.0781 3590.87L5.86225 4161.33C2.42635 4187.39 9.38847 4213.75 25.2423 4234.72L240.271 4519.07C252.78 4535.61 270.123 4547.86 289.897 4554.11L948.791 4762.35C958.539 4765.43 968.703 4767 978.926 4767H2282.28C2298.2 4767 2313.88 4763.2 2328.04 4755.92L3164.91 4325.24C3184.73 4315.04 3200.58 4298.51 3209.93 4278.27L3556.78 3527.46C3562.85 3514.31 3566 3500 3566 3485.52V3107.25C3566 3084.44 3558.2 3062.31 3543.9 3044.54L3268.6 2702.57C3263.22 2695.88 3258.73 2688.54 3255.22 2680.7L3119.04 2376.36C3108.73 2353.31 3107.52 2327.21 3115.65 2303.31L3260.5 1877.5L3467.73 1147.82C3471.53 1134.42 3472.5 1120.38 3470.56 1106.58L3422.87 767.207C3419.41 742.619 3406.93 720.196 3387.86 704.3L3273.87 609.312C3230.85 573.454 3166.76 579.927 3131.77 623.664L3069.41 701.609C3055.23 719.34 3047.5 741.371 3047.5 764.078V917.37C3047.5 933.548 3043.57 949.485 3036.06 963.813L2862.91 1293.99C2850.49 1317.67 2829.11 1335.39 2803.53 1343.2L2644.77 1391.65C2635.31 1394.53 2625.47 1396 2615.58 1396H2406.45C2383.51 1396 2361.28 1388.12 2343.47 1373.68L1992.43 1089.05C1985.84 1083.7 1979.95 1077.54 1974.92 1070.71L1787.84 816.953C1753 769.689 1685.12 762.477 1641.12 801.363L1510.37 916.929C1492.09 933.084 1468.54 942 1444.14 942H1284.53C1251.64 942 1220.85 925.828 1202.19 898.747L1137.37 804.69C1132.48 797.593 1128.52 789.894 1125.61 781.783L963.5 331L849.632 61.9599C828.045 10.9555 769.115 -12.789 718.197 9.00142L507.387 99.2183C479.629 111.097 458.725 134.882 450.507 163.935L343 544L263.303 923.871C260.789 935.855 260.497 948.199 262.442 960.288L341.641 1452.55C342.545 1458.17 343.928 1463.71 345.775 1469.1L459.829 1801.79C462.268 1808.91 465.503 1815.73 469.472 1822.12L661.453 2131.27C671.288 2147.11 676.5 2165.38 676.5 2184.02V2455.1Z" fill="#3E6F91"/>
<path d="M676.5 2455.1C676.5 2471.77 672.333 2488.17 664.379 2502.82L92.3415 3556.22C86.4969 3566.98 82.6791 3578.73 81.0781 3590.87L5.86225 4161.33C2.42635 4187.39 9.38847 4213.75 25.2423 4234.72L240.271 4519.07C252.78 4535.61 270.123 4547.86 289.897 4554.11L948.791 4762.35C958.539 4765.43 968.703 4767 978.926 4767H2282.28C2298.2 4767 2313.88 4763.2 2328.04 4755.92L3164.91 4325.24C3184.73 4315.04 3200.58 4298.51 3209.93 4278.27L3556.78 3527.46C3562.85 3514.31 3566 3500 3566 3485.52V3107.25C3566 3084.44 3558.2 3062.31 3543.9 3044.54L3268.6 2702.57C3263.22 2695.88 3258.73 2688.54 3255.22 2680.7L3119.04 2376.36C3108.73 2353.31 3107.52 2327.21 3115.65 2303.31L3260.5 1877.5L3467.73 1147.82C3471.53 1134.42 3472.5 1120.38 3470.56 1106.58L3422.87 767.207C3419.41 742.619 3406.93 720.196 3387.86 704.3L3273.87 609.312C3230.85 573.454 3166.76 579.927 3131.77 623.664L3069.41 701.609C3055.23 719.34 3047.5 741.371 3047.5 764.078V917.37C3047.5 933.548 3043.57 949.485 3036.06 963.813L2862.91 1293.99C2850.49 1317.67 2829.11 1335.39 2803.53 1343.2L2644.77 1391.65C2635.31 1394.53 2625.47 1396 2615.58 1396H2406.45C2383.51 1396 2361.28 1388.12 2343.47 1373.68L1992.43 1089.05C1985.84 1083.7 1979.95 1077.54 1974.92 1070.71L1787.84 816.953C1753 769.689 1685.12 762.477 1641.12 801.363L1510.37 916.929C1492.09 933.084 1468.54 942 1444.14 942H1284.53C1251.64 942 1220.85 925.828 1202.19 898.747L1137.37 804.69C1132.48 797.593 1128.52 789.894 1125.61 781.783L963.5 331L849.632 61.9599C828.045 10.9555 769.115 -12.789 718.197 9.00142L507.387 99.2183C479.629 111.097 458.725 134.882 450.507 163.935L343 544L263.303 923.871C260.789 935.855 260.497 948.199 262.442 960.288L341.641 1452.55C342.545 1458.17 343.928 1463.71 345.775 1469.1L459.829 1801.79C462.268 1808.91 465.503 1815.73 469.472 1822.12L661.453 2131.27C671.288 2147.11 676.5 2165.38 676.5 2184.02V2455.1Z" stroke="#6885C9"/>
</g>
<defs>
<filter id="filter0_d_1_4" x="0.503906" y="0.410156" width="3570" height="4775.09" filterUnits="userSpaceOnUse" color-interpolation-filters="sRGB">
<feFlood flood-opacity="0" result="BackgroundImageFix"/>
<feColorMatrix in="SourceAlpha" type="matrix" values="0 0 0 0 0 0 0 0 0 0 0 0 0 0 0 0 0 0 127 0" result="hardAlpha"/>
<feOffset dy="4"/>
<feGaussianBlur stdDeviation="2"/>
<feComposite in2="hardAlpha" operator="out"/>
<feColorMatrix type="matrix" values="0 0 0 0 0 0 0 0 0 0 0 0 0 0 0 0 0 0 0.25 0"/>
<feBlend mode="normal" in2="BackgroundImageFix" result="effect1_dropShadow_1_4"/>
<feBlend mode="normal" in="SourceGraphic" in2="effect1_dropShadow_1_4" result="shape"/>
</filter>
</defs>
</svg>
